<?xml version="1.0" encoding="UTF-8"?>
<svg id="Capa_1" xmlns="http://www.w3.org/2000/svg" version="1.1" viewBox="0 0 1080 1080">
  <!-- Generator: Adobe Illustrator 30.2.1, SVG Export Plug-In . SVG Version: 2.1.1 Build 1)  -->
  <polygon points="334.63 453.47 334.63 626.8 377.46 626.8 377.46 660.92 295.66 660.92 295.66 419.35 377.46 419.35 377.46 453.47 334.63 453.47"/>
  <polygon points="784.34 419.35 784.34 660.92 702.54 660.92 702.54 626.8 745.37 626.8 745.37 453.47 702.54 453.47 702.54 419.35 784.34 419.35"/>
  <path d="M663.54,586.23c-1.12-43.69-43.21-64.27-61.34-73.08l-85.16-42.93c-.98-.5-3.98-2.01-2.95-6.35,1.03-4.34,4.39-4.34,5.49-4.34h137.55v-40.23h-137.55c-21.68,0-39.62,14.17-44.63,35.27-5.02,21.09,4.62,41.82,23.98,51.58l85.29,42.99.26.13c27.6,13.42,38.5,24.08,38.85,38,.44,16.97-12.95,31.94-29.83,33.36-5.39.45-10.6-.34-15.46-2.37-5.16-2.15-9.85-6.05-13.56-11.28l-48.39-68.24c-14.06-21.81-32.97-43.96-66.48-43.96-21.97,0-43.15,10.55-56.66,28.22-11.56,15.11-16.73,34.44-15.22,55.86h40.36c-1.5-12.82.79-23.54,6.82-31.42,7.01-9.16,17.36-12.43,24.71-12.43,10.31,0,18.99,4.23,32.88,25.87l49.17,69.38c8.08,11.4,18.77,20.09,30.92,25.15,10.72,4.46,22.58,6.3,34.29,5.32,38.38-3.23,67.67-35.95,66.68-74.48Z"/>
</svg>